<svg id="Capa_1" data-name="Capa 1" xmlns="http://www.w3.org/2000/svg" viewBox="0 0 100 100.06"><defs><style>.cls-1{fill:#0c6d90;}.cls-2,.cls-3{fill:#83cbf2;isolation:isolate;}.cls-2{opacity:0.2;}.cls-4{fill:#010101;}.cls-5{fill:#fff;}.cls-6{fill:#eee6e6;}.cls-7{fill:#d9e4e4;}.cls-8{fill:#425f6d;}.cls-9{fill:#7bba40;}.cls-10{fill:#8eaeba;}.cls-11{fill:#2f4851;}</style></defs><path class="cls-1" d="M9.42,63.34h80a42,42,0,0,1-80,0Z"/><path class="cls-2" d="M90.46,41.61H8.36a42,42,0,0,1,82.1,0Z"/><path class="cls-3" d="M91.42,51a25.56,25.56,0,0,1-2,9.95h-80A25.48,25.48,0,0,1,8.36,44.05h82.1A25.15,25.15,0,0,1,91.42,51Z"/><path class="cls-4" d="M50,100.06a50,50,0,1,1,50-50A50.06,50.06,0,0,1,50,100.06ZM50,2.55A47.43,47.43,0,1,0,96.39,40,47.43,47.43,0,0,0,50,2.55Z"/><circle class="cls-5" cx="68.36" cy="22.64" r="0.81"/><circle class="cls-5" cx="17.8" cy="48.05" r="0.81"/><circle class="cls-5" cx="52.07" cy="48.86" r="0.81"/><circle class="cls-5" cx="37.59" cy="82.02" r="0.81"/><circle class="cls-5" cx="27.04" cy="24.56" r="0.81"/><circle class="cls-5" cx="73.45" cy="76.99" r="1.43"/><circle class="cls-5" cx="25.62" cy="71.84" r="1.43"/><path class="cls-5" d="M29.24,62.64a10.15,10.15,0,0,1,0-20.3Z"/><path class="cls-5" d="M70.76,62.64a10.15,10.15,0,0,0,0-20.3Z"/><path class="cls-6" d="M45.75,71.39h8.13a2.8,2.8,0,0,1,2.8,2.8h0a2.8,2.8,0,0,1-2.8,2.8H45.75a2.81,2.81,0,0,1-2.8-2.8h0A2.8,2.8,0,0,1,45.75,71.39Z"/><path class="cls-4" d="M65.83,74.89H57.06a.7.7,0,1,1,0-1.4h8.78a6.94,6.94,0,0,0,6.92-6.92V52.89a.7.7,0,0,1,1.4,0V66.57A8.32,8.32,0,0,1,65.83,74.89Z"/><path class="cls-4" d="M65.68,71.91H59.21a.52.52,0,0,1,0-1h6.48a5.1,5.1,0,0,0,5.1-5.1V55.69a.52.52,0,1,1,1,0V65.77A6.14,6.14,0,0,1,65.68,71.91Z"/><path class="cls-7" d="M29.24,62.64c-4.39,0-8-4.55-8-10.15s3.57-10.15,8-10.15Z"/><path class="cls-7" d="M70.76,62.64c4.4,0,8-4.55,8-10.15s-3.57-10.15-8-10.15Z"/><path class="cls-4" d="M70.76,63.43a.79.79,0,0,1-.79-.79h0v-5a.8.8,0,0,1,1.59,0v4.15a9.35,9.35,0,0,0,0-18.64V53.58a.8.8,0,0,1-1.59,0V42.34a.79.79,0,0,1,.79-.79h0a10.94,10.94,0,1,1,0,21.88Z"/><path class="cls-8" d="M67.81,39.37c0-9.2-8-16.66-17.81-16.66S32.2,30.17,32.2,39.37l-3.18-1c0-10.84,9.39-19.63,21-19.63s21,8.79,21,19.63"/><path class="cls-5" d="M53.88,73.81H45.75c-1.54,0-2.8,1.92-2.8.38h0a2.8,2.8,0,0,1,2.8-2.8h8.13a2.8,2.8,0,0,1,2.8,2.8h0C56.68,75.73,55.43,73.81,53.88,73.81Z"/><path class="cls-4" d="M53.88,77.69H45.75a3.5,3.5,0,0,1,0-7h8.13a3.5,3.5,0,1,1,0,7Zm-8.13-5.6a2.1,2.1,0,0,0,0,4.2h8.13a2.1,2.1,0,0,0,0-4.2Z"/><path class="cls-9" d="M18.79,54.87a2,2,0,1,1,0-4"/><path class="cls-4" d="M29.25,63.43a10.94,10.94,0,1,1,0-21.88h0a.8.8,0,0,1,.79.79h0v20.3a.8.8,0,0,1-.79.79Zm-.8-20.26a9.35,9.35,0,0,0,0,18.64Z"/><path class="cls-4" d="M18.79,55.26a2.38,2.38,0,1,1,0-4.75.4.4,0,0,1,0,.79,1.59,1.59,0,1,0,0,3.17h0a.39.39,0,0,1,.39.4A.38.38,0,0,1,18.79,55.26Z"/><path class="cls-4" d="M25,57.89a.29.29,0,0,1-.27-.24l-.38-2.6a.28.28,0,0,1,.23-.31.29.29,0,0,1,.31.23l.38,2.6a.27.27,0,0,1-.23.31Z"/><path class="cls-4" d="M23.73,57.28a.27.27,0,0,1-.27-.23l-.38-2.6a.27.27,0,0,1,.22-.31.27.27,0,0,1,.31.23L24,57a.28.28,0,0,1-.23.3Z"/><path class="cls-4" d="M71,39.65a.77.77,0,0,1-.77-.76C70.22,28.49,61.15,20,50,20S29.79,28.49,29.79,38.89a.77.77,0,0,1-1.54,0c0-11.25,9.76-20.4,21.75-20.4s21.76,9.15,21.76,20.4A.77.77,0,0,1,71,39.65Z"/><path class="cls-4" d="M67.81,40.49a.65.65,0,0,1-.65-.65c0-8.82-7.7-16-17.16-16S32.85,31,32.85,39.84a.65.65,0,1,1-1.3,0c0-9.54,8.28-17.3,18.45-17.3s18.46,7.76,18.46,17.3A.65.65,0,0,1,67.81,40.49Z"/><path class="cls-10" d="M35.22,28.21a.42.42,0,0,1-.43-.42.48.48,0,0,1,.07-.24,11.2,11.2,0,0,1,4.5-3.68.42.42,0,0,1,.55.23.43.43,0,0,1-.23.56A10.21,10.21,0,0,0,35.57,28,.44.44,0,0,1,35.22,28.21Z"/><path class="cls-10" d="M60.79,24.84a.45.45,0,0,1-.23-.07,18.12,18.12,0,0,0-3.83-1.87.43.43,0,0,1,.27-.81,18.28,18.28,0,0,1,4,2,.42.42,0,0,1-.23.78Z"/><path class="cls-8" d="M29.93,37.83h0a2.89,2.89,0,0,1,2.89,2.89V65.08A2.89,2.89,0,0,1,29.93,68h0A2.89,2.89,0,0,1,27,65.08V40.72A2.89,2.89,0,0,1,29.93,37.83Z"/><path class="cls-11" d="M32.81,55.69v9.15a2.88,2.88,0,0,1-5.76,0V55.69a2.88,2.88,0,0,0,5.76,0Z"/><path class="cls-8" d="M69.77,37.83h0a2.89,2.89,0,0,1,2.89,2.89V65.08A2.88,2.88,0,0,1,69.77,68h0a2.88,2.88,0,0,1-2.88-2.88V40.72A2.88,2.88,0,0,1,69.77,37.83Z"/><path class="cls-4" d="M29.93,68.33A3.35,3.35,0,0,1,26.57,65V40.61a3.36,3.36,0,1,1,6.72,0V65A3.36,3.36,0,0,1,29.93,68.33Zm0-30.13a2.41,2.41,0,0,0-2.41,2.41V65a2.41,2.41,0,0,0,4.82,0h0V40.61A2.41,2.41,0,0,0,29.93,38.2Z"/><path class="cls-11" d="M72.65,55.69v9.15a2.88,2.88,0,0,1-5.76,0h0V55.69a2.88,2.88,0,0,0,5.76,0Z"/><path class="cls-4" d="M69.77,68.33A3.36,3.36,0,0,1,66.41,65V40.61a3.37,3.37,0,1,1,6.73,0V65A3.37,3.37,0,0,1,69.77,68.33Zm0-30.13a2.4,2.4,0,0,0-2.4,2.41V65a2.41,2.41,0,1,0,4.81,0h0V40.61A2.41,2.41,0,0,0,69.77,38.2Z"/><path class="cls-10" d="M29.25,49.29a.43.43,0,0,1-.43-.43V42.34a.43.43,0,0,1,.85,0v6.52A.42.42,0,0,1,29.25,49.29Z"/><path class="cls-10" d="M69.77,57a.42.42,0,0,1-.42-.42V50a.43.43,0,0,1,.85,0v6.52A.42.42,0,0,1,69.77,57Z"/><path class="cls-4" d="M49.41,75.06H46.29a.27.27,0,0,1,0-.54h3.12a.27.27,0,1,1,0,.54Z"/></svg>