<?xml version="1.0" encoding="utf-8"?>
<!-- Generator: Adobe Illustrator 25.1.0, SVG Export Plug-In . SVG Version: 6.00 Build 0)  -->
<svg version="1.1" id="Capa_1" xmlns="http://www.w3.org/2000/svg" xmlns:xlink="http://www.w3.org/1999/xlink" x="0px" y="0px"
	 viewBox="0 0 99.6 99.7" style="enable-background:new 0 0 99.6 99.7;" xml:space="preserve">
<style type="text/css">
	.st0{fill:#010101;}
	.st1{opacity:0.43;fill:#83CBF2;}
	.st2{fill:#0C6D90;}
	.st3{fill:#83CBF2;}
	.st4{fill:#FFFFFF;}
	.st5{fill:#81CEE9;}
	.st6{fill:#7D8FC8;}
	.st7{opacity:0.21;fill:#83CBF2;enable-background:new    ;}
	.st8{fill:#140D10;}
	.st9{fill:#FDC50A;}
	.st10{fill:#EF7A1A;}
	.st11{fill:#EEE6E6;}
	.st12{fill:#E52927;}
	.st13{fill:#CA1517;}
</style>
<path class="st0" d="M49.8,99.7c-27.5,0-49.9-22.3-49.9-49.8S22.2,0,49.7,0c27.5,0,49.8,22.2,49.9,49.7v0.1c0,16.5-8.2,32-21.9,41.3
	c-0.6,0.4-1.4,0.2-1.8-0.3c0,0,0,0,0,0c-0.4-0.6-0.2-1.4,0.3-1.8c21.5-14.6,27.1-43.9,12.5-65.4S45-3.4,23.5,11.2S-3.7,55,10.9,76.5
	c12.2,18,35.1,25.3,55.5,17.7c0.7-0.2,1.4,0.1,1.6,0.7c0.2,0.7-0.1,1.4-0.7,1.6C61.7,98.7,55.8,99.7,49.8,99.7z"/>
<g>
	<path class="st1" d="M91.6,40.6H9.8C14.8,18,37,3.7,59.6,8.6C75.6,12,88.2,24.6,91.6,40.6L91.6,40.6z"/>
	<path class="st2" d="M10,62.6h79.7c-7,22-30.6,34.1-52.6,27.1C24.2,85.6,14.1,75.5,10,62.6L10,62.6z"/>
	<path class="st3" d="M91.6,50.3c0.3,3.4-0.2,6.7-1.2,9.9H9.3C8.2,57,7.7,53.7,8,50.3c0-2.3,0.4-4.6,1-6.9h81.7
		C91.3,45.7,91.6,48,91.6,50.3z"/>
	<circle class="st4" cx="85.9" cy="47.9" r="1.4"/>
	<circle class="st5" cx="82" cy="67" r="1.4"/>
	<circle class="st5" cx="16.9" cy="69.4" r="1.4"/>
	<circle class="st4" cx="74.1" cy="81.1" r="0.7"/>
	<circle class="st4" cx="17.7" cy="47.9" r="0.8"/>
	<circle class="st4" cx="38.8" cy="84.5" r="0.8"/>
	<circle class="st6" cx="80.6" cy="52.5" r="0.8"/>
</g>
<g>
	<circle class="st4" cx="28.5" cy="25.6" r="1.4"/>
	<path class="st4" d="M77.7,70.3l0,2.7c0,1.1-0.9,2-2,2l-50.5,0.1c-1.1,0-2-0.9-2-2l0-2.7c0-1.1,0.9-2,2-2l50.5-0.1
		C76.8,68.2,77.7,69.1,77.7,70.3z"/>
	<path class="st7" d="M77.7,68.6l0,2.7c0,1.1-0.9,2-2,2l-50.5,0.1c-1.1,0-2-0.9-2-2l0-2.7c0-1.1,0.9-2,2-2l50.5-0.1
		C76.8,66.5,77.7,67.5,77.7,68.6z"/>
	<path class="st8" d="M21.9,73.1l0-2.7c0-1.5,1.3-2.8,2.8-2.8l50.5-0.1c1.6,0,2.8,1.3,2.8,2.8l0,2.7c0,1.5-1.2,2.8-2.8,2.8
		c0,0,0,0,0,0l-50.5,0.1C23.2,75.9,21.9,74.7,21.9,73.1z M76.5,70.3c0-0.7-0.6-1.3-1.2-1.3c0,0,0,0,0,0l-50.5,0.1
		c-0.7,0-1.2,0.6-1.2,1.3l0,2.7c0,0.7,0.6,1.2,1.3,1.2l50.5-0.1c0.7,0,1.2-0.6,1.2-1.3L76.5,70.3z"/>
	<path class="st4" d="M20.4,40.7l0-12c0-0.7,0.6-1.2,1.3-1.2c0,0,0,0,0,0l57.3-0.1c0.7,0,1.3,0.5,1.3,1.2c0,0,0,0,0,0l0.1,38
		c-0.1,0.6-0.6,1.1-1.3,1.1l-57.3,0.1c-0.7,0-1.2-0.5-1.3-1.2c0,0,0,0,0,0l-0.1-21.9"/>
	<path class="st9" d="M20.4,44.3l0-12c0-0.7,0.6-1.2,1.3-1.2L78.9,31c0.7,0,1.3,0.5,1.3,1.2l0.1,38c0,0.7-0.6,1.2-1.3,1.2l-57.3,0.1
		c-0.7,0-1.3-0.5-1.3-1.2l-0.1-22"/>
	<path class="st10" d="M79,70.7l-57.3,0.1c-0.7,0-1.3-0.5-1.3-1.2l-0.1-38c5.3,30.8,41.7,38.5,59.9,37.9l0,0.1
		C80.2,70.3,79.7,70.8,79,70.7L79,70.7z"/>
	<path class="st8" d="M19.7,70.2l-0.1-23.7c0-0.4,0.3-0.8,0.8-0.8c0.4,0,0.8,0.3,0.8,0.8l0.1,23.7c0,0.3,0.2,0.5,0.5,0.5L79,70.5
		c0.3,0,0.5-0.2,0.5-0.5l-0.1-41.1c0-0.3-0.2-0.5-0.5-0.5c0,0,0,0,0,0l-19.2,0c-0.4,0-0.8-0.3-0.8-0.8c0,0,0,0,0,0
		c0-0.4,0.3-0.8,0.8-0.8l0,0l19.2,0c1.1,0,2.1,0.9,2.1,2.1L81,70c0,1.1-0.9,2.1-2.1,2.1l-57.3,0.1C20.6,72.2,19.7,71.3,19.7,70.2z"
		/>
	<path class="st8" d="M36.6,27.7c0-0.4,0.3-0.8,0.7-0.8l0,0l13.3,0c0.4,0,0.8,0.3,0.9,0.7s-0.3,0.8-0.7,0.9c-0.1,0-0.1,0-0.2,0l0,0
		l-13.3,0C37,28.5,36.6,28.1,36.6,27.7C36.6,27.7,36.6,27.7,36.6,27.7L36.6,27.7z"/>
	<path class="st8" d="M19.6,42.1l0-13c0-1.1,0.9-2.1,2.1-2.1l4.6,0c0.4,0,0.7,0.4,0.7,0.9c0,0.4-0.3,0.6-0.7,0.7l0,0l-4.6,0
		c-0.3,0-0.5,0.2-0.5,0.5l0,13c0,0.4-0.3,0.8-0.8,0.8C19.9,42.8,19.6,42.5,19.6,42.1z"/>
	<circle class="st8" cx="31.5" cy="27.7" r="0.9"/>
	<circle class="st4" cx="70.1" cy="31.2" r="1.9"/>
	<circle class="st4" cx="55" cy="31.2" r="1"/>
	<circle class="st4" cx="62.2" cy="31.2" r="0.7"/>
	<circle class="st4" cx="67.2" cy="33.1" r="0.7"/>
	<circle class="st4" cx="52.1" cy="32.8" r="0.7"/>
	<path class="st8" d="M68.6,68.2c0-0.1,0-0.2,0.1-0.3l1.9-1.7c0.2-0.2,0.4-0.2,0.6,0c0.2,0.1,0.2,0.4,0,0.5c0,0,0,0,0,0l0,0
		l-1.9,1.7c-0.2,0.2-0.4,0.2-0.6,0C68.7,68.4,68.6,68.3,68.6,68.2z"/>
	<path class="st8" d="M68.2,66.2c0-0.1,0-0.2,0.1-0.3l3-2.5c0.1-0.2,0.4-0.2,0.6,0c0.2,0.1,0.2,0.4,0,0.6c0,0,0,0-0.1,0.1l-3,2.5
		c-0.2,0.2-0.4,0.2-0.5,0l0,0C68.3,66.5,68.2,66.3,68.2,66.2z"/>
	<path class="st11" d="M73.4,25.6l0,7.4c0,1.4-1.1,2.6-2.6,2.6l0,0l0,0c-1.4,0-2.6-1.1-2.6-2.5c0,0,0,0,0,0l0-7.4
		c0-1.4,1.1-2.6,2.6-2.6l0,0C72.2,23,73.4,24.2,73.4,25.6z"/>
	<path class="st4" d="M71.2,33l0-7.4c0-1.4-1.8-2.6-0.4-2.6l0,0c1.4,0,2.5,1.1,2.5,2.6l0,7.4c0,1.4-1.1,2.6-2.6,2.6l0,0l0,0
		C69.4,35.6,71.2,34.4,71.2,33z"/>
	<path class="st0" d="M67.8,33l0-7.4c0-1.7,1.4-3,3-3c1.7,0,3,1.4,3,3l0,7.4c0,1.7-1.4,3-3,3S67.8,34.7,67.8,33z M72.9,25.6
		c0-1.2-0.9-2.1-2.1-2.1s-2.1,0.9-2.1,2.1l0,7.4c0,1.2,0.9,2.1,2.1,2.1c1.2,0,2.1-0.9,2.1-2.1L72.9,25.6z"/>
	<path class="st0" d="M70.1,28.9l0-2.8c0-0.1,0.1-0.3,0.2-0.3c0.1,0,0.2,0.1,0.3,0.2l0,2.8c0,0.1-0.1,0.3-0.3,0.3
		C70.2,29.2,70.1,29.1,70.1,28.9z"/>
	<path class="st11" d="M60.4,25.6l0,7.4c0,1.4-1.1,2.6-2.5,2.6c0,0,0,0,0,0l0,0c-1.4,0-2.6-1.1-2.6-2.6c0,0,0,0,0,0l0-7.4
		c0-1.4,1.1-2.6,2.6-2.6l0,0l0,0C59.2,23,60.4,24.2,60.4,25.6L60.4,25.6z"/>
	<path class="st4" d="M58.2,33l0-7.4c0-1.4-1.8-2.6-0.4-2.6l0,0c1.4,0,2.6,1.1,2.6,2.5c0,0,0,0,0,0l0,7.4c0,1.4-1.1,2.6-2.5,2.6
		c0,0,0,0,0,0l0,0C56.4,35.6,58.2,34.5,58.2,33z"/>
	<path class="st0" d="M54.8,33.1l0-7.4c0-1.7,1.4-3,3-3c1.7,0,3,1.4,3,3l0,7.4c0,1.7-1.4,3-3,3C56.1,36.1,54.8,34.7,54.8,33.1z
		 M59.9,25.6c0-1.2-0.9-2.1-2.1-2.1c-1.2,0-2.1,0.9-2.1,2.1l0,7.4c0,1.2,0.9,2.1,2.1,2.1s2.1-0.9,2.1-2.1
		C59.9,33,59.9,25.6,59.9,25.6z"/>
	<path class="st0" d="M57,29l0-2.8c0-0.1,0.1-0.3,0.3-0.3c0.1,0,0.2,0.1,0.2,0.2l0,2.8c0,0.1-0.1,0.3-0.2,0.3S57,29.1,57,29z"/>
	<path class="st11" d="M34.2,25.7l0,7.4c0,1.4-1.1,2.6-2.6,2.6l0,0c-1.4,0-2.6-1.1-2.6-2.5c0,0,0,0,0,0l0-7.4c0-1.4,1.1-2.6,2.6-2.6
		l0,0C33.1,23.1,34.2,24.3,34.2,25.7z"/>
	<path class="st4" d="M32,33.1l0-7.4c0-1.4-1.8-2.6-0.4-2.6l0,0c1.4,0,2.6,1.1,2.6,2.6l0,7.4c0,1.4-1.1,2.6-2.6,2.6l0,0
		C30.3,35.7,32,34.5,32,33.1z"/>
	<path class="st0" d="M28.7,33.1l0-7.4c0-1.7,1.4-3,3-3c1.7,0,3,1.4,3,3l0,7.4c0,1.7-1.4,3-3,3C30,36.1,28.7,34.8,28.7,33.1z
		 M33.8,25.7c0-1.2-0.9-2.1-2.1-2.1c-1.2,0-2.1,0.9-2.1,2.1l0,7.4c0,1.2,0.9,2.1,2.1,2.1c1.2,0,2.1-0.9,2.1-2.1
		C33.8,33.1,33.8,25.7,33.8,25.7z"/>
	<path class="st0" d="M30.9,29l0-2.8c0-0.1,0.1-0.3,0.2-0.3c0.1,0,0.2,0.1,0.3,0.2l0,2.8c0,0.1-0.1,0.3-0.3,0.3
		C31,29.3,30.9,29.2,30.9,29z"/>
	<path class="st11" d="M47.3,25.6l0,7.4c0,1.4-1.1,2.6-2.6,2.6c0,0,0,0,0,0l0,0c-1.4,0-2.6-1.1-2.6-2.6c0,0,0,0,0,0l0-7.4
		c0-1.4,1.1-2.6,2.6-2.6l0,0l0,0C46.1,23.1,47.3,24.2,47.3,25.6z"/>
	<path class="st4" d="M45.1,33.1l0-7.4c0-1.4-1.8-2.6-0.4-2.6l0,0c1.4,0,2.6,1.1,2.6,2.6l0,7.4c0,1.4-1.1,2.6-2.6,2.6c0,0,0,0,0,0
		l0,0C43.3,35.6,45.1,34.5,45.1,33.1z"/>
	<path class="st0" d="M41.7,33.1l0-7.4c0-1.7,1.4-3,3-3c1.7,0,3,1.4,3,3l0,7.4c0,1.7-1.4,3-3,3C43.1,36.1,41.7,34.8,41.7,33.1z
		 M46.8,25.6c0.1-1.2-0.8-2.1-1.9-2.2c-1.2-0.1-2.1,0.8-2.2,1.9c0,0.1,0,0.2,0,0.3l0,7.4c-0.1,1.2,0.8,2.1,1.9,2.2
		c1.2,0.1,2.1-0.8,2.2-1.9c0-0.1,0-0.2,0-0.3C46.8,33.1,46.8,25.6,46.8,25.6z"/>
	<path class="st0" d="M43.9,29l0-2.8c0-0.1,0.1-0.3,0.2-0.3c0.1,0,0.2,0.1,0.2,0.2l0,2.8c0,0.1-0.1,0.3-0.2,0.3
		C44.1,29.3,44,29.2,43.9,29C43.9,29.1,43.9,29,43.9,29z"/>
	
		<rect x="62.7" y="71.3" transform="matrix(1 -2.326362e-03 2.326362e-03 1 -0.172 0.1534)" class="st12" width="6.3" height="5.3"/>
	
		<rect x="62.7" y="71.3" transform="matrix(1 -2.326362e-03 2.326362e-03 1 -0.1685 0.1534)" class="st13" width="6.3" height="2.3"/>
	<path class="st0" d="M62.3,76.7l0-5.3c0-0.2,0.2-0.4,0.4-0.4l6.3,0c0.2,0,0.4,0.2,0.4,0.4l0,5.3c0,0.2-0.2,0.4-0.4,0.4l0,0l-1.7,0
		c-0.2,0-0.4-0.2-0.4-0.4c0-0.2,0.2-0.4,0.4-0.4l1.2,0l0-4.5l-5.4,0l0,4.5l2.4,0c0.2,0,0.4,0.2,0.4,0.4c0,0.2-0.2,0.4-0.4,0.4l0,0
		l-2.8,0C62.5,77.1,62.3,76.9,62.3,76.7C62.3,76.7,62.3,76.7,62.3,76.7z"/>
</g>
<g>
	<path d="M45.8,58.6H44c-0.4,0-0.8-0.4-0.8-0.8V47.3h-1.3v-1.6c0-0.3,0.2-0.6,0.6-0.7c0.3-0.1,0.5-0.3,0.7-0.5
		c0.2-0.2,0.3-0.5,0.4-0.7c0.1-0.3,0.4-0.6,0.8-0.6h1.5c0.4,0,0.8,0.4,0.8,0.8v13.8C46.6,58.2,46.3,58.6,45.8,58.6z"/>
	<path d="M57.8,56.6L57.8,56.6c-0.5,0-0.8,0.4-0.8,0.8v0.3c0,0.5-0.4,0.8-0.8,0.8h-1.6c-0.5,0-0.8-0.4-0.8-0.8v-0.3
		c0-0.5-0.4-0.8-0.8-0.8h-2.9c-0.5,0-0.8-0.4-0.8-0.8v-1.2c0-0.1,0-0.2,0-0.2l3.1-10.5c0.1-0.4,0.4-0.6,0.8-0.6h3.1
		c0.5,0,0.8,0.4,0.8,0.8v9.5c0,0.5,0.4,0.8,0.8,0.8h0c0.5,0,0.8,0.4,0.8,0.8v0.6C58.7,56.2,58.3,56.6,57.8,56.6z M52.8,54.3
		c0.5,0,0.8-0.4,0.8-0.8v-5.2l-1.5,6.1H52.8z"/>
</g>
</svg>
