<svg id="Capa_1" data-name="Capa 1" xmlns="http://www.w3.org/2000/svg" viewBox="0 0 99.93 100"><defs><style>.cls-1{fill:#010101;}.cls-2{fill:#0c6d90;}.cls-3,.cls-4{fill:#83cbf2;}.cls-3{opacity:0.21;isolation:isolate;}.cls-5{fill:#fff;}.cls-6{fill:#fac5a2;}.cls-7{fill:#f5a477;}.cls-8{fill:#def0f8;}.cls-9{fill:#85c7ce;}.cls-10{fill:#c5e5ea;}</style></defs><path class="cls-1" d="M50,100a50,50,0,1,1,50-50.07V50A50,50,0,0,1,50,100ZM50,2.57A47.39,47.39,0,1,0,96.31,40,47.39,47.39,0,0,0,50,2.57Z" transform="translate(0 0)"/><path class="cls-2" d="M10,62.81H89.93a42,42,0,0,1-79.93,0Z" transform="translate(0 0)"/><path class="cls-3" d="M91,41.09H9a42,42,0,0,1,82,0Z" transform="translate(0 0)"/><path class="cls-4" d="M91.94,50.43a25.73,25.73,0,0,1-2,9.94H10A25.39,25.39,0,0,1,9,43.53H91A25.54,25.54,0,0,1,91.94,50.43Z" transform="translate(0 0)"/><circle class="cls-5" cx="68.3" cy="22.63" r="0.81"/><circle class="cls-5" cx="17.79" cy="48.02" r="0.81"/><circle class="cls-5" cx="37.55" cy="81.97" r="0.81"/><circle class="cls-5" cx="27.02" cy="24.55" r="0.81"/><circle class="cls-5" cx="69.73" cy="68.85" r="1.43"/><circle class="cls-5" cx="84.72" cy="44.65" r="1.43"/><circle class="cls-5" cx="25.6" cy="71.79" r="1.43"/><circle class="cls-6" cx="39.45" cy="65.13" r="11.79"/><circle class="cls-7" cx="39.45" cy="65.13" r="7.42"/><path class="cls-1" d="M39.45,77.57A12.44,12.44,0,1,1,51.89,65.13h0A12.45,12.45,0,0,1,39.45,77.57Zm0-23.58A11.15,11.15,0,1,0,50.6,65.13h0A11.16,11.16,0,0,0,39.45,54Z" transform="translate(0 0)"/><circle class="cls-5" cx="51.32" cy="48.24" r="0.81"/><path class="cls-5" d="M73.41,70,56.63,80.08a6.81,6.81,0,0,1-9.33-2.32h0L25.77,42,24.2,39.33A6.8,6.8,0,0,1,26.52,30h0L43.3,19.92a6.81,6.81,0,0,1,9.33,2.32h0l23.1,38.42A6.81,6.81,0,0,1,73.41,70Z" transform="translate(0 0)"/><path class="cls-8" d="M52.76,22.46,75.58,60.41l0,0L47.17,77.54l0,0L24.33,39.56Z" transform="translate(0 0)"/><path class="cls-9" d="M47.93,76.93a1,1,0,0,1-.89-.5L25.25,40.18a1,1,0,0,1,.35-1.41l26.64-16a1,1,0,0,1,1.06,1.76L27.54,40,48.8,75.37a1,1,0,0,1-.35,1.41,1.08,1.08,0,0,1-.52.15Z" transform="translate(0 0)"/><path class="cls-1" d="M24.48,40.39a.59.59,0,0,1-.59-.59.58.58,0,0,1,.29-.5l6.36-3.82a.58.58,0,1,1,.6,1L24.78,40.3A.53.53,0,0,1,24.48,40.39Z" transform="translate(0 0)"/><path class="cls-1" d="M47.32,78.37a.59.59,0,0,1-.59-.58.6.6,0,0,1,.29-.51l5-3a.59.59,0,0,1,.8.21.58.58,0,0,1-.2.8l-5,3A.61.61,0,0,1,47.32,78.37Z" transform="translate(0 0)"/><path class="cls-10" d="M59.24,75.91a.84.84,0,0,1-.85-.84.86.86,0,0,1,.41-.73l8.35-5A.85.85,0,1,1,68,70.77l-8.35,5A.86.86,0,0,1,59.24,75.91Z" transform="translate(0 0)"/><path class="cls-5" d="M71.18,56.58a1,1,0,0,1-.88-.5L65,47.31a1,1,0,0,1,1.75-1.07h0L72.06,55a1,1,0,0,1-.35,1.41,1,1,0,0,1-.53.15Z" transform="translate(0 0)"/><path class="cls-5" d="M62.33,41.86a1,1,0,0,1-.88-.5l-5.28-8.77a1,1,0,1,1,1.76-1.06h0l5.28,8.77a1,1,0,0,1-.35,1.41,1,1,0,0,1-.53.15Z" transform="translate(0 0)"/><path class="cls-1" d="M53.14,81.84a7.6,7.6,0,0,1-6.52-3.68L23.52,39.74a7.6,7.6,0,0,1,2.59-10.41L42.9,19.24a7.6,7.6,0,0,1,10.41,2.59l23.1,38.42a7.6,7.6,0,0,1-2.59,10.41h0L57,80.76A7.6,7.6,0,0,1,53.14,81.84Zm-6.35-62.1a6,6,0,0,0-3.08.86L26.93,30.69a6,6,0,0,0-2.05,8.24L48,77.35a6,6,0,0,0,8.24,2.05L73,69.31a6,6,0,0,0,2-8.24L52,22.65A6,6,0,0,0,46.79,19.74ZM73.41,70Z" transform="translate(0 0)"/><path class="cls-1" d="M37.18,29.35a1.52,1.52,0,1,1,.76-.22A1.46,1.46,0,0,1,37.18,29.35Zm0-2.28a.8.8,0,1,0,.77,1,.78.78,0,0,0-.58-1A.58.58,0,0,0,37.18,27.07Z" transform="translate(0 0)"/><path class="cls-1" d="M59,75.1a.62.62,0,0,1-.62-.62.6.6,0,0,1,.3-.53l8.35-5A.62.62,0,1,1,67.67,70l-8.35,5A.59.59,0,0,1,59,75.1Z" transform="translate(0 0)"/><path class="cls-6" d="M52.7,38.45l7.73-5a3,3,0,0,1,4.21.9h0a3.05,3.05,0,0,1-.9,4.21l-7.73,5a3,3,0,0,1-4.21-.9h0A3,3,0,0,1,52.7,38.45Z" transform="translate(0 0)"/><path class="cls-1" d="M54.36,44.67a3.67,3.67,0,0,1-2-6.75l7.73-5a3.67,3.67,0,0,1,4,6.16h0l-7.73,5A3.6,3.6,0,0,1,54.36,44.67Zm7.72-11.08a2.41,2.41,0,0,0-1.31.38L53,39A2.42,2.42,0,0,0,55.67,43l7.73-5a2.42,2.42,0,0,0-.81-4.39A2.21,2.21,0,0,0,62.08,33.59Zm1.66,5Z" transform="translate(0 0)"/><path class="cls-6" d="M56,43.55l7.73-5a3,3,0,0,1,4.21.9h0a3,3,0,0,1-.9,4.21l-7.73,5a3,3,0,0,1-4.21-.9h0A3,3,0,0,1,56,43.55Z" transform="translate(0 0)"/><path class="cls-1" d="M57.66,49.78a3.31,3.31,0,0,1-.77-.09A3.67,3.67,0,0,1,55.66,43l7.73-5a3.67,3.67,0,0,1,4,6.16h0l-7.73,5A3.68,3.68,0,0,1,57.66,49.78Zm7.72-11.09a2.36,2.36,0,0,0-1.31.39l-7.73,5a2.42,2.42,0,0,0,.81,4.39A2.38,2.38,0,0,0,59,48.14l7.73-5a2.42,2.42,0,0,0-1.32-4.45Zm1.66,5Z" transform="translate(0 0)"/><path class="cls-6" d="M59.31,48.66l7.73-5a3.05,3.05,0,0,1,4.21.9h0a3.05,3.05,0,0,1-.91,4.21l-7.73,5a3,3,0,0,1-4.2-.9h0A3,3,0,0,1,59.31,48.66Z" transform="translate(0 0)"/><path class="cls-6" d="M62.61,53.77l7.73-5a3,3,0,0,1,4.21.9h0a3,3,0,0,1-.9,4.21h0l-7.73,5a3.05,3.05,0,0,1-4.21-.9h0a3,3,0,0,1,.9-4.21Z" transform="translate(0 0)"/><path class="cls-1" d="M61,54.88a3.44,3.44,0,0,1-.78-.08,3.65,3.65,0,0,1-2.81-4.35A3.62,3.62,0,0,1,59,48.14l7.73-5a3.67,3.67,0,1,1,4,6.16h0l-7.72,5A3.62,3.62,0,0,1,61,54.88ZM68.69,43.8a2.34,2.34,0,0,0-1.31.39l-7.73,5a2.42,2.42,0,1,0,2.62,4.06h0l7.73-5a2.42,2.42,0,0,0-.8-4.4,2.94,2.94,0,0,0-.51-.05Zm1.65,5Z" transform="translate(0 0)"/><path class="cls-1" d="M64.28,60a3.39,3.39,0,0,1-.78-.08,3.67,3.67,0,0,1-1.23-6.67l7.73-5a3.67,3.67,0,0,1,4,6.15h0l-7.73,5A3.59,3.59,0,0,1,64.28,60ZM72,48.91a2.36,2.36,0,0,0-1.31.39l-7.72,5a2.42,2.42,0,1,0,2.62,4.06l7.73-5A2.42,2.42,0,0,0,72.5,49a2.94,2.94,0,0,0-.51-.05Zm1.66,5Z" transform="translate(0 0)"/><rect class="cls-6" x="26.47" y="46.21" width="15.29" height="9.9" rx="4.95" transform="translate(-26.08 63.77) rotate(-68.13)"/><path class="cls-1" d="M33.1,59.26a5.6,5.6,0,0,1-5.59-5.6,5.7,5.7,0,0,1,.4-2.08l2-5a5.6,5.6,0,1,1,10.39,4.17l-2,5A5.6,5.6,0,0,1,33.1,59.26Zm2-14.9a4.32,4.32,0,0,0-4,2.7l-2,5a4.31,4.31,0,0,0,8,3.21l2-5a4.3,4.3,0,0,0-2.39-5.6A4.38,4.38,0,0,0,35.12,44.36Z" transform="translate(0 0)"/><polygon class="cls-5" points="61.52 68.75 58.69 70.62 37.82 32.06 40.65 30.19 61.52 68.75"/><polygon class="cls-5" points="64.81 66.6 63.04 67.74 42.17 29.19 43.95 28.04 64.81 66.6"/><path class="cls-1" d="M55.51,73.45a.58.58,0,0,1-.59-.59.61.61,0,0,1,.28-.5L75.44,60.19a.6.6,0,0,1,.81.2.61.61,0,0,1-.2.81L55.81,73.37A.64.64,0,0,1,55.51,73.45Z" transform="translate(0 0)"/><path class="cls-1" d="M33.2,35.14a.58.58,0,0,1-.58-.58.61.61,0,0,1,.28-.51L52.6,22.21a.59.59,0,0,1,.81.2.59.59,0,0,1-.2.8L33.51,35.06A.68.68,0,0,1,33.2,35.14Z" transform="translate(0 0)"/></svg>