<svg id="Capa_1" data-name="Capa 1" xmlns="http://www.w3.org/2000/svg" viewBox="0 0 100 100.09"><defs><style>.cls-1{fill:#010101;}.cls-2{fill:#0c6e91;}.cls-3,.cls-4{fill:#83cbf2;isolation:isolate;}.cls-3{opacity:0.21;}.cls-5{fill:#fff;}.cls-6{fill:#def0f8;}.cls-7{fill:#85c7ce;}.cls-8{fill:#c5e5ea;}.cls-9{fill:none;stroke:#fdc50a;stroke-linecap:round;stroke-linejoin:round;stroke-width:2px;}</style></defs><path class="cls-1" d="M50,100.09A50,50,0,1,1,100,50v.1A50.05,50.05,0,0,1,50,100.09Zm0-97.5A47.43,47.43,0,1,0,96.38,40,47.41,47.41,0,0,0,50,2.59Z" transform="translate(0 0)"/><path class="cls-2" d="M9.88,62.91h80a42,42,0,0,1-80,0Z" transform="translate(0 0)"/><path class="cls-3" d="M90.93,41.17H8.83a42,42,0,0,1,82.1,0Z" transform="translate(0 0)"/><path class="cls-4" d="M91.89,50.21a25.76,25.76,0,0,1-2,9.95h-80A25.48,25.48,0,0,1,8.83,43.31h82.1A25.94,25.94,0,0,1,91.89,50.21Z" transform="translate(0 0)"/><circle class="cls-5" cx="84.66" cy="44.74" r="1.43"/><circle class="cls-5" cx="67.76" cy="21" r="0.81"/><circle class="cls-5" cx="51.47" cy="47.22" r="0.81"/><circle class="cls-5" cx="36.99" cy="80.38" r="0.81"/><circle class="cls-5" cx="26.45" cy="22.92" r="0.81"/><circle class="cls-5" cx="69.18" cy="67.26" r="1.43"/><circle class="cls-5" cx="84.18" cy="43.04" r="1.43"/><circle class="cls-5" cx="25.02" cy="70.2" r="1.43"/><path class="cls-5" d="M59.2,77.27H39.61a6.79,6.79,0,0,1-6.8-6.8h0V25.61a6.79,6.79,0,0,1,6.8-6.8H59.2a6.79,6.79,0,0,1,6.8,6.8h0V70.47a6.79,6.79,0,0,1-6.8,6.8Z" transform="translate(0 0)"/><path class="cls-6" d="M66,25.86V70.22H32.8V25.86Z" transform="translate(0 0)"/><path class="cls-7" d="M34.3,70.23a1,1,0,0,1-1-1V26.87a1,1,0,0,1,1-1H65.41a1,1,0,0,1,0,2H35.32V69.2A1,1,0,0,1,34.3,70.23Z" transform="translate(0 0)"/><path class="cls-1" d="M40.23,26.74H32.81a.58.58,0,0,1-.59-.58.6.6,0,0,1,.58-.6h7.43a.59.59,0,0,1,0,1.18Z" transform="translate(0 0)"/><path class="cls-1" d="M38.69,71.09H32.81a.59.59,0,0,1,0-1.17h5.89a.58.58,0,0,1,.59.58.58.58,0,0,1-.58.59Z" transform="translate(0 0)"/><path class="cls-8" d="M54.18,75.17H44.43a.85.85,0,0,1,0-1.7h9.75a.85.85,0,0,1,0,1.7Z" transform="translate(0 0)"/><path class="cls-5" d="M64.74,64.77a1,1,0,0,1-1-1V53.5a1,1,0,1,1,2.05,0V63.74A1,1,0,0,1,64.74,64.77Z" transform="translate(0 0)"/><path class="cls-5" d="M64.74,47.58a1,1,0,0,1-1-1V36.31a1,1,0,0,1,2.05,0V46.55A1,1,0,0,1,64.74,47.58Z" transform="translate(0 0)"/><path class="cls-1" d="M59.13,78.9H39.53a7.6,7.6,0,0,1-7.59-7.59V26.45a7.6,7.6,0,0,1,7.59-7.59h19.6a7.6,7.6,0,0,1,7.59,7.59V71.31A7.6,7.6,0,0,1,59.13,78.9ZM39.53,20.44a6,6,0,0,0-6,6V71.31a6,6,0,0,0,6,6h19.6a6,6,0,0,0,6-6V26.45a6,6,0,0,0-6-6Z" transform="translate(0 0)"/><path class="cls-1" d="M54.28,74.32H44.53a.63.63,0,0,1,0-1.25h9.75a.63.63,0,0,1,.63.62.63.63,0,0,1-.62.63Z" transform="translate(0 0)"/><path class="cls-1" d="M52,24.4a1.48,1.48,0,1,1,1.48-1.48h0A1.48,1.48,0,0,1,52,24.4Zm0-2.27a.8.8,0,1,0,.8.79A.8.8,0,0,0,52,22.13Z" transform="translate(0 0)"/><path class="cls-1" d="M49.43,23.27H44.25a.35.35,0,0,1-.34-.35.34.34,0,0,1,.34-.34h5.18a.34.34,0,0,1,.34.34A.35.35,0,0,1,49.43,23.27Z" transform="translate(0 0)"/><polygon class="cls-5" points="48.72 70.22 45.33 70.22 49.21 26.51 52.6 26.51 48.72 70.22"/><polygon class="cls-5" points="52.66 70.24 50.54 70.22 54.43 26.51 56.55 26.54 52.66 70.24"/><path class="cls-1" d="M66,26.74H43a.59.59,0,0,1-.59-.58.6.6,0,0,1,.59-.6H66a.59.59,0,0,1,0,1.18Z" transform="translate(0 0)"/><path class="cls-1" d="M66,71.09H42.37a.58.58,0,0,1-.59-.58.57.57,0,0,1,.58-.59H66a.59.59,0,1,1,0,1.17Z" transform="translate(0 0)"/><path class="cls-1" d="M32,36.14a.84.84,0,0,1-.84-.84V31.06a.84.84,0,0,1,1.68,0V35.3A.83.83,0,0,1,32,36.14Z" transform="translate(0 0)"/><path class="cls-1" d="M32,42.27a.84.84,0,0,1-.84-.84V38.82a.84.84,0,0,1,1.68,0v2.61A.83.83,0,0,1,32,42.27Z" transform="translate(0 0)"/><path class="cls-9" d="M54.09,43.78A3.4,3.4,0,0,0,51,42.08h-3.4a3.4,3.4,0,0,0,0,6.8H51a3.4,3.4,0,0,1,0,6.8h-3.4A3.4,3.4,0,0,1,44.57,54" transform="translate(0 0)"/><path class="cls-9" d="M49.33,38.68v3.4m0,13.6v3.4" transform="translate(0 0)"/></svg>