<?xml version="1.0" encoding="utf-8"?>
<!-- Generator: Adobe Illustrator 25.1.0, SVG Export Plug-In . SVG Version: 6.00 Build 0)  -->
<svg version="1.1" id="Capa_1" xmlns="http://www.w3.org/2000/svg" xmlns:xlink="http://www.w3.org/1999/xlink" x="0px" y="0px"
	 viewBox="0 0 728.2 89.2" style="enable-background:new 0 0 728.2 89.2;" xml:space="preserve">
<style type="text/css">
	.st0{fill:#F4F4F4;}
	.st1{enable-background:new    ;}
	.st2{fill:none;stroke:#F4F4F4;stroke-width:0.5;stroke-miterlimit:10;}
	.st3{fill:#F4F4F4;stroke:#F4F4F4;stroke-width:2;stroke-miterlimit:10;}
</style>
<path class="st0" d="M372.1,69c-13.8,0-24.9-11.7-24.9-26c0-13.2,9.4-24.1,21.5-25.8C353.1-1,325.6-3,307.4,12.7
	c-18.2,15.7-20.2,43.2-4.4,61.4c2.1,2.4,4.5,4.6,7,6.5V42.9h28v46.3c14.2-0.7,27.2-8.2,34.8-20.3C372.6,69,372.4,69,372.1,69z
	 M322.4,38.3c-6.9,0-12.5-5.6-12.5-12.4c0-6.9,5.6-12.5,12.4-12.5c6.9,0,12.5,5.6,12.5,12.4l0,0C334.8,32.7,329.3,38.3,322.4,38.3z"
	/>
<path class="st0" d="M390,42.8v-1.4c2.8-0.3,3.2-0.5,3.2-3.8V22.9c0-3.2-0.4-3.6-3.2-3.8v-1.4h11.4v1.4c-2.8,0.3-3.2,0.5-3.2,3.8
	v14.7c0,3.2,0.3,3.5,3.2,3.8v1.4H390z"/>
<path class="st0" d="M413.6,42.8v-1.3c1.6-0.2,1.7-0.4,1.7-3v-6.6c0-2.8-1.3-3.6-2.6-3.6c-1,0.1-2,0.5-2.8,1.2v9.4
	c0,2.4,0.1,2.5,1.7,2.8V43H403v-1.3c1.9-0.3,2.1-0.4,2.1-2.9v-8.1c0-2.3-0.3-2.4-1.9-2.8v-1.2c2.3-0.3,4.6-0.8,6.8-1.5
	c0,0.5-0.1,1.9-0.1,2.8c0.7-0.5,1.5-1.1,2.4-1.7c0.8-0.6,1.9-1,2.9-1c3,0,4.9,2.3,4.9,6.2v7.4c0,2.4,0.2,2.5,2,2.8V43L413.6,42.8z"
	/>
<path class="st0" d="M443.3,41.8c-2.5,0.4-4.9,0.9-7.3,1.5v-2.2c-0.7,0.5-1.6,1-2.3,1.5c-0.5,0.4-1.2,0.7-1.9,0.7
	c-3.1,0-7.6-2.8-7.6-8.6c0-5.3,4.5-9.5,10.3-9.5c0.5,0,1,0,1.5,0.1v-4.4c0-2-0.2-2.2-2.5-2.6V17c2.5-0.3,4.9-0.7,7.3-1.3v22.2
	c0,2.1,0.2,2.3,1.6,2.5l0.8,0.1L443.3,41.8z M436.1,28.8c-0.4-1.2-1.5-2-2.8-1.9c-1.1,0-3.6,0.8-3.6,6.4c0,5.1,2.7,6.9,4.4,7
	c0.7,0,1.4-0.2,2-0.7L436.1,28.8z"/>
<path class="st0" d="M463.5,41.9c-2.2,0.3-4.6,0.8-7.1,1.4v-2.6c-1.5,1.3-3.1,2.6-5.1,2.6c-3.1,0-4.9-2.1-4.9-5.5v-8
	c0-1.8-0.2-2-1.2-2.2l-0.8-0.2V26c1.9-0.1,4.8-0.3,6.9-0.7c-0.1,1.6-0.1,3.6-0.1,5.8v5.6c0,2.5,1.2,3.4,2.5,3.4c1,0.1,2-0.3,2.7-1.1
	v-9.3c0-1.8-0.2-2.1-1.2-2.3l-1.1-0.2V26c2.4-0.1,4.8-0.3,7.1-0.7V38c0,2,0.2,2.4,1.4,2.5l0.8,0.1v1.3
	C463.4,41.9,463.5,41.9,463.5,41.9z"/>
<path class="st0" d="M475.7,30.6c-1-2.7-2.2-4-4-4c-1.1,0-2,0.9-2,2c0,0,0,0,0,0.1c0,1.3,0.9,2.1,2.9,3c3,1.4,5.1,2.7,5.1,5.8
	c0,3.9-3.5,5.8-6.8,5.8c-1.6-0.1-3.2-0.5-4.7-1.2c-0.1-0.9-0.5-3.6-0.6-4.9l1.2-0.2c0.8,2.4,2.3,4.7,4.7,4.7c1.1,0.1,2-0.7,2.1-1.7
	c0-0.1,0-0.2,0-0.3c0-1.2-0.6-2.1-2.9-3.2s-4.8-2.6-4.8-5.8c0-3,2.4-5.5,6.3-5.5c1.4,0,2.7,0.2,4,0.6c0.1,1,0.4,3.5,0.6,4.6
	L475.7,30.6z"/>
<path class="st0" d="M487.3,42.8c-0.5,0.2-1,0.4-1.5,0.4c-2.9,0-4.6-1.4-4.6-4.9V27.6h-2.4l-0.2-0.5l1.1-1.5h1.5v-3.2
	c1.3-0.9,3.1-2.2,4.4-3.1l0.5,0.3c0,1-0.1,3.1-0.1,6h3.7c0.3,0.6,0.2,1.4-0.3,1.9H486V37c0,3,1.2,3.4,1.9,3.4c0.6,0,1.2-0.1,1.8-0.4
	l0.4,1.4L487.3,42.8z"/>
<path class="st0" d="M501.2,42.8h-9.8v-1.3c2-0.2,2.1-0.4,2.1-2.8v-8.5c0-1.9-0.1-2.1-1.9-2.5v-1.2c2.3-0.3,4.5-0.8,6.7-1.5v4.2
	c1.7-2.7,3-4.1,4.5-4.1c1.3-0.1,2.3,0.9,2.4,2.2c0,0.1,0,0.1,0,0.2c0,1.3-0.7,2.6-1.9,3.3c-0.4,0.2-0.8,0.1-1.1-0.2
	c-0.6-0.5-1.1-1.2-1.7-1.2s-1.5,0.5-2.2,2v7.4c0,2.3,0.3,2.4,2.9,2.8V42.8z"/>
<path class="st0" d="M507.1,42.8v-1.3c2-0.3,2.2-0.4,2.2-3.2v-7.6c0-2.6-0.2-2.8-1.9-3v-1.2c2.3-0.3,4.5-0.7,6.7-1.4v13.2
	c0,2.6,0.1,2.9,2.3,3.2v1.3H507.1z M511.5,22.8c-1.5,0-2.7-1.3-2.7-2.8s1.2-2.7,2.7-2.7l0,0c1.5,0,2.7,1.2,2.7,2.6V20
	C514.2,21.5,513,22.7,511.5,22.8L511.5,22.8z"/>
<path class="st0" d="M530.7,43.3c-0.8,0-1.7-0.3-2.3-0.8c-0.4-0.4-0.8-0.9-1-1.4c-1.4,1-3.2,2.2-3.9,2.2c-2.8,0-5-2.2-5-4.9
	c0,0,0,0,0-0.1c0-2,0.9-3,2.9-3.8c2.2-0.8,5.1-1.8,6-2.6v-1.7c0-2-0.7-3.1-2.3-3.1c-0.6,0-1.1,0.3-1.5,0.8c-0.5,0.8-0.8,1.7-0.9,2.5
	c-0.1,0.8-0.8,1.4-1.6,1.3c-1.1,0-2-0.9-2.2-2c0-0.7,0.4-1.2,1.3-1.8c1.8-1.3,3.8-2.2,5.9-2.7c1.4,0,2.7,0.3,3.8,1.1
	c1.6,1.2,2,2.8,2,4.8v6.7c0,1.9,0.6,2.3,1.2,2.3c0.4,0,0.8-0.1,1.2-0.3l0.4,1.3L530.7,43.3z M527.3,33.5l-2.1,1.2
	c-1.1,0.4-1.8,1.5-1.8,2.6c0,2.2,1.4,2.9,2.3,2.9c0.6,0.1,1.2-0.2,1.6-0.6V33.5z"/>
<path class="st0" d="M561,26.9c-1.8,0.3-2.1,0.7-3.1,2.7s-2,4.9-4.1,10.3c-2.5,6.3-3.2,8.8-3.9,11c-0.3,0.8-0.7,1.1-1.3,1.1
	c-1.5,0.1-2.7-1-2.9-2.5c0-0.6,0.2-0.9,1-1.4c1.3-0.6,2.4-1.6,3.1-2.8c0.4-0.7,0.7-1.4,0.9-2.2c0.1-0.5,0.1-1-0.1-1.5
	c-1.9-5.6-4.3-10.9-5-12.5c-0.7-1.6-1.1-2.1-2.9-2.4v-1.3h9.4v1.3c-1.6,0.3-1.9,0.5-1.5,1.7l2.9,8.2c0.8-2.1,2.1-5.7,2.8-7.9
	c0.4-1.2-0.1-1.7-2-2v-1.4h6.7V26.9z"/>
<path class="st0" d="M593.8,36.1c-0.6,2.1-1.3,4.2-2.1,6.2c-2.2,0.6-4.5,0.9-6.8,1c-10,0-14.1-6.7-14.1-12.9c0-8,5.9-13.4,14.8-13.4
	c2.4,0.1,4.7,0.4,7,0.9c0.2,1.8,0.5,4.7,0.7,6.4l-1.5,0.3c-0.8-3-1.9-4.5-3.9-5.3c-1-0.4-2.1-0.6-3.2-0.5c-5.4,0-8.1,4.7-8.1,10.8
	c0,7.1,3.5,11.9,8.6,11.9c3.1,0,5.2-1.7,7.2-6L593.8,36.1z"/>
<path class="st0" d="M605.4,25.2c4.7-0.1,8.5,3.6,8.6,8.3c0,0.2,0,0.3,0,0.5c0,6.2-4.3,9.4-8.7,9.4c-4.8,0.1-8.7-3.7-8.8-8.5
	c0-0.1,0-0.3,0-0.4c-0.1-4.9,3.8-9,8.7-9.2C605.3,25.2,605.3,25.2,605.4,25.2z M605,26.7c-1.6,0-3.2,1.8-3.2,6.5s1.5,8.5,3.9,8.5
	c1.4,0,2.9-1,2.9-6.7C608.6,29.6,607.3,26.7,605,26.7z"/>
<path class="st0" d="M636.6,42.8v-1.3c1.5-0.2,1.8-0.4,1.8-2.8V32c0-3.2-1.5-3.8-2.6-3.8c-1,0-2,0.5-2.7,1.2c0,0.5,0.1,1,0.1,1.6
	v7.8c0,2.2,0.1,2.4,1.8,2.6v1.3h-8.3v-1.3c1.6-0.2,1.8-0.3,1.8-2.6v-7c0-2.8-1-3.6-2.4-3.6c-1.1,0-2.1,0.5-2.9,1.2v9.5
	c0,2.2,0.2,2.4,1.6,2.6v1.3h-8.5v-1.4c2-0.3,2.1-0.4,2.1-2.8v-8.2c0-2.2,0-2.5-1.8-2.8v-1.2c2.2-0.3,4.4-0.8,6.5-1.5v2.9
	c0.8-0.6,1.5-1.1,2.3-1.6c0.9-0.7,2-1.1,3.1-1.2c1.9,0,3.6,1.1,4.2,2.9c0.9-0.7,1.6-1.2,2.5-1.9c0.9-0.6,1.9-1,3-1
	c3.2,0,4.9,2.3,4.9,6.2v7.5c0,2.1,0.2,2.3,2,2.6v1.3L636.6,42.8z"/>
<path class="st0" d="M661.9,39c-2.3,3.5-5.2,4.2-6.8,4.2c-5,0-7.8-3.8-7.8-8.4c0-2.6,1-5.1,2.8-7c1.5-1.7,3.6-2.6,5.8-2.7
	c3.4,0.1,6.2,2.9,6.1,6.3c0,0.7,0,1.3-0.5,1.4c-0.7,0.2-5.9,0.5-9.5,0.6c0.1,4.1,2.3,6.2,5,6.2c1.6,0,3.1-0.6,4.2-1.7L661.9,39z
	 M655.2,26.7c-1.5,0-2.8,1.8-3,4.9l4.5-0.1c0.5,0,0.7-0.1,0.7-0.8C657.5,28.8,656.6,26.7,655.2,26.7z"/>
<path class="st0" d="M674,42.8h-9.8v-1.3c2-0.2,2.1-0.4,2.1-2.8v-8.5c0-1.9-0.1-2.1-1.9-2.5v-1.2c2.3-0.3,4.5-0.8,6.7-1.5v4.2
	c1.7-2.7,3-4.1,4.5-4.1c1.3-0.1,2.3,0.9,2.4,2.2c0,0.1,0,0.1,0,0.2c0,1.3-0.7,2.6-1.9,3.3c-0.4,0.2-0.8,0.1-1.1-0.2
	c-0.6-0.5-1.1-1.2-1.8-1.2c-0.7,0-1.5,0.5-2.1,2v7.4c0,2.3,0.3,2.4,2.9,2.8V42.8L674,42.8z"/>
<path class="st0" d="M694,39c-1.7,2.6-4.2,4.2-6.5,4.2c-4.4,0.1-8.1-3.5-8.1-7.9c0-0.1,0-0.3,0-0.4c0-2.9,1.4-5.6,3.8-7.4
	c1.8-1.5,4.1-2.3,6.5-2.4c1.2,0,2.3,0.3,3.3,0.9c0.5,0.3,0.7,0.9,0.7,1.4c0,1.1-1.1,2.2-1.7,2.2c-0.3,0-0.6-0.2-0.8-0.4
	c-1.6-1.4-2.9-2-3.9-2c-1.5,0-3.2,1.5-3.2,5.6c0,5.2,3.6,6.8,5.2,6.8c1.5,0,3-0.5,4-1.6L694,39z"/>
<path class="st0" d="M695.5,42.8v-1.3c2-0.3,2.2-0.4,2.2-3.2v-7.6c0-2.6-0.2-2.8-1.9-3v-1.2c2.3-0.3,4.5-0.7,6.7-1.4v13.2
	c0,2.6,0.1,2.9,2.3,3.2v1.3H695.5z M699.9,22.8c-1.5,0-2.7-1.3-2.7-2.8s1.2-2.7,2.7-2.7l0,0c1.5,0,2.7,1.2,2.7,2.6V20
	C702.5,21.5,701.3,22.7,699.9,22.8L699.9,22.8z"/>
<path class="st0" d="M715.7,25.2c4.7-0.1,8.5,3.7,8.5,8.3c0,0.1,0,0.3,0,0.4c0,6.2-4.3,9.4-8.7,9.4c-4.8,0.1-8.7-3.7-8.8-8.5
	c0-0.2,0-0.3,0-0.5c-0.1-4.9,3.8-9,8.7-9.2C715.5,25.2,715.6,25.2,715.7,25.2z M715.3,26.7c-1.6,0-3.1,1.8-3.1,6.5s1.5,8.5,3.9,8.5
	c1.4,0,2.9-1,2.9-6.7C718.9,29.6,717.6,26.7,715.3,26.7z"/>
<g class="st1">
	<path class="st0" d="M389.4,70l3.5-0.3c0.2,1.1,0.6,1.9,1.3,2.5c0.6,0.5,1.5,0.8,2.6,0.8c1.2,0,2-0.2,2.6-0.7
		c0.6-0.5,0.9-1,0.9-1.6c0-0.4-0.1-0.7-0.4-1s-0.7-0.5-1.3-0.7c-0.4-0.1-1.4-0.4-2.9-0.7c-1.9-0.5-3.3-1-4.1-1.7
		c-1.1-0.9-1.6-2.1-1.6-3.4c0-0.9,0.3-1.7,0.8-2.4c0.5-0.8,1.3-1.3,2.2-1.7c1-0.4,2.1-0.6,3.5-0.6c2.2,0,3.9,0.5,5.1,1.4
		c1.1,0.9,1.7,2.2,1.8,3.7l-3.6,0.2c-0.2-0.9-0.5-1.5-1-1.9c-0.5-0.4-1.3-0.6-2.3-0.6c-1,0-1.9,0.2-2.5,0.6
		c-0.4,0.3-0.6,0.6-0.6,1.1c0,0.4,0.2,0.7,0.5,1c0.5,0.4,1.6,0.7,3.3,1.1c1.8,0.4,3.1,0.8,3.9,1.2c0.8,0.4,1.5,1,2,1.7
		c0.5,0.7,0.7,1.6,0.7,2.7c0,1-0.3,1.9-0.9,2.7c-0.6,0.9-1.4,1.5-2.4,1.9c-1,0.4-2.3,0.6-3.9,0.6c-2.3,0-4-0.5-5.2-1.5
		S389.7,71.9,389.4,70z"/>
	<path class="st0" d="M412,58.5h3.6v9.2c0,1.5,0,2.4,0.1,2.8c0.2,0.7,0.5,1.3,1.1,1.7c0.6,0.4,1.4,0.6,2.4,0.6c1,0,1.8-0.2,2.3-0.6
		c0.5-0.4,0.8-0.9,0.9-1.5c0.1-0.6,0.2-1.5,0.2-2.9v-9.4h3.6v8.9c0,2-0.1,3.5-0.3,4.3c-0.2,0.8-0.6,1.6-1.1,2.1s-1.2,1-2.1,1.4
		s-2,0.5-3.4,0.5c-1.7,0-3-0.2-3.9-0.6c-0.9-0.4-1.6-0.9-2.1-1.5c-0.5-0.6-0.8-1.2-1-1.9c-0.2-1-0.4-2.4-0.4-4.3V58.5z"/>
	<path class="st0" d="M435.1,75.5v-17h5.8c2.2,0,3.6,0.1,4.3,0.3c1,0.3,1.9,0.8,2.6,1.7c0.7,0.9,1,2,1,3.3c0,1-0.2,1.9-0.6,2.6
		c-0.4,0.7-0.9,1.3-1.5,1.7c-0.6,0.4-1.2,0.7-1.9,0.8c-0.9,0.2-2.1,0.2-3.7,0.2h-2.4v6.4H435.1z M438.7,61.4v4.8h2
		c1.4,0,2.4-0.1,2.9-0.3c0.5-0.2,0.9-0.5,1.1-0.8c0.3-0.4,0.4-0.8,0.4-1.3c0-0.6-0.2-1.1-0.6-1.5c-0.4-0.4-0.9-0.7-1.5-0.8
		c-0.4-0.1-1.3-0.1-2.6-0.1H438.7z"/>
	<path class="st0" d="M456.7,75.5v-17H470v2.9h-9.6v3.8h9V68h-9v4.6h10v2.9H456.7z"/>
	<path class="st0" d="M478.4,75.5v-17h7.6c1.9,0,3.3,0.2,4.2,0.5s1.6,0.8,2.1,1.6c0.5,0.8,0.8,1.7,0.8,2.7c0,1.3-0.4,2.3-1.2,3.2
		s-2,1.4-3.5,1.6c0.8,0.4,1.4,0.9,1.9,1.4c0.5,0.5,1.2,1.4,2.1,2.8l2.2,3.3h-4.3l-2.6-3.7c-0.9-1.3-1.6-2.2-1.9-2.5
		c-0.3-0.3-0.7-0.6-1.1-0.7c-0.4-0.1-1-0.2-1.8-0.2H482v7.1H478.4z M482,65.7h2.7c1.7,0,2.8-0.1,3.2-0.2c0.4-0.1,0.8-0.4,1-0.7
		c0.2-0.3,0.4-0.8,0.4-1.3c0-0.6-0.2-1-0.5-1.4s-0.8-0.6-1.4-0.7c-0.3,0-1.2-0.1-2.6-0.1H482V65.7z"/>
	<path class="st0" d="M501.4,75.5v-17h3.6v17H501.4z"/>
	<path class="st0" d="M513.5,75.5v-17h3.5l7.3,11.4V58.5h3.4v17H524l-7.2-11.1v11.1H513.5z"/>
	<path class="st0" d="M540.5,75.5V61.4h-5.3v-2.9h14.2v2.9h-5.3v14.1H540.5z"/>
	<path class="st0" d="M556.8,75.5v-17H570v2.9h-9.6v3.8h9V68h-9v4.6h10v2.9H556.8z"/>
	<path class="st0" d="M578.5,75.5v-17h3.5l7.3,11.4V58.5h3.4v17H589l-7.2-11.1v11.1H578.5z"/>
	<path class="st0" d="M601.5,58.5h6.6c1.5,0,2.6,0.1,3.4,0.3c1,0.3,1.9,0.8,2.7,1.6c0.7,0.8,1.3,1.7,1.7,2.8c0.4,1.1,0.6,2.4,0.6,4
		c0,1.4-0.2,2.6-0.5,3.6c-0.4,1.2-1.1,2.2-1.9,3c-0.6,0.6-1.5,1-2.5,1.4c-0.8,0.2-1.9,0.4-3.2,0.4h-6.8V58.5z M605.1,61.4v11.3h2.7
		c1,0,1.7-0.1,2.2-0.2c0.6-0.1,1.1-0.4,1.5-0.7s0.7-0.9,0.9-1.6c0.2-0.8,0.4-1.8,0.4-3.1c0-1.3-0.1-2.3-0.4-3
		c-0.2-0.7-0.6-1.3-1-1.6s-1-0.7-1.7-0.8c-0.5-0.1-1.5-0.2-3-0.2H605.1z"/>
	<path class="st0" d="M624.5,75.5v-17h13.3v2.9h-9.6v3.8h9V68h-9v4.6h10v2.9H624.5z"/>
	<path class="st0" d="M646.2,75.5v-17h3.5l7.3,11.4V58.5h3.4v17h-3.6l-7.2-11.1v11.1H646.2z"/>
	<path class="st0" d="M680.7,69.3l3.5,1.1c-0.5,1.9-1.4,3.2-2.7,4.1c-1.2,0.9-2.8,1.4-4.7,1.4c-2.4,0-4.3-0.8-5.9-2.3
		c-1.5-1.5-2.3-3.7-2.3-6.3c0-2.8,0.8-5,2.3-6.6c1.5-1.6,3.6-2.3,6.1-2.3c2.2,0,4,0.6,5.3,1.8c0.8,0.7,1.4,1.8,1.8,3.1l-3.6,0.8
		c-0.2-0.9-0.7-1.6-1.3-2.1c-0.7-0.5-1.5-0.8-2.4-0.8c-1.3,0-2.4,0.5-3.2,1.4c-0.8,0.9-1.2,2.4-1.2,4.4c0,2.2,0.4,3.7,1.2,4.6
		c0.8,0.9,1.9,1.4,3.2,1.4c1,0,1.8-0.3,2.5-0.9C679.9,71.4,680.4,70.5,680.7,69.3z"/>
	<path class="st0" d="M692.2,75.5v-17h3.6v17H692.2z"/>
	<path class="st0" d="M720.4,75.5h-3.9l-1.6-3.9h-7.1l-1.5,3.9h-3.8l7-17h3.8L720.4,75.5z M713.8,68.8l-2.5-6.3l-2.4,6.3H713.8z"/>
</g>
<line class="st2" x1="388.5" y1="49.9" x2="719.5" y2="49.9"/>
<g>
	<g>
		<path class="st0" d="M20.9,33l8.6,25.4L38,32.8c0.4-1.3,0.8-2.3,1-2.8s0.6-1,1.1-1.4c0.5-0.4,1.2-0.6,2.1-0.6
			c0.7,0,1.3,0.2,1.8,0.5c0.6,0.3,1,0.8,1.3,1.3s0.5,1.1,0.5,1.6c0,0.4-0.1,0.8-0.2,1.2c-0.1,0.4-0.2,0.9-0.4,1.3
			c-0.2,0.4-0.3,0.9-0.5,1.3L35.7,60c-0.3,0.9-0.7,1.8-1,2.7c-0.3,0.9-0.7,1.6-1.1,2.2s-1,1.2-1.7,1.6c-0.7,0.4-1.6,0.6-2.6,0.6
			c-1,0-1.9-0.2-2.6-0.6c-0.7-0.4-1.3-0.9-1.7-1.6c-0.4-0.7-0.8-1.4-1.1-2.3c-0.3-0.8-0.7-1.7-1-2.7l-9-24.5
			c-0.2-0.4-0.3-0.9-0.5-1.3c-0.2-0.4-0.3-0.9-0.4-1.4c-0.1-0.5-0.2-0.9-0.2-1.3c0-0.9,0.4-1.7,1.1-2.4c0.7-0.7,1.6-1.1,2.7-1.1
			c1.3,0,2.2,0.4,2.8,1.2S20.3,31.3,20.9,33z"/>
		<path class="st0" d="M51.9,62.5V32.6c0-1.5,0.4-2.7,1.1-3.5c0.7-0.8,1.6-1.2,2.7-1.2c1.2,0,2.1,0.4,2.8,1.1
			c0.7,0.8,1.1,1.9,1.1,3.5v29.8c0,1.6-0.4,2.7-1.1,3.5c-0.7,0.8-1.6,1.2-2.8,1.2c-1.1,0-2-0.4-2.7-1.2C52.3,65.2,51.9,64,51.9,62.5
			z"/>
		<path class="st0" d="M102.8,51.1v7.3c0,1-0.1,1.7-0.3,2.3c-0.2,0.6-0.5,1.1-1,1.6c-0.5,0.5-1.2,0.9-1.9,1.3
			c-2.3,1.2-4.5,2.1-6.6,2.7c-2.1,0.6-4.4,0.9-6.9,0.9c-2.9,0-5.6-0.4-8-1.3s-4.4-2.2-6.1-3.9c-1.7-1.7-3-3.8-3.9-6.2
			c-0.9-2.4-1.4-5.1-1.4-8.1c0-2.9,0.4-5.6,1.3-8.1c0.9-2.4,2.2-4.5,3.9-6.2c1.7-1.7,3.8-3,6.2-3.9c2.4-0.9,5.2-1.4,8.3-1.4
			c2.5,0,4.8,0.3,6.8,1c2,0.7,3.6,1.5,4.8,2.6c1.2,1,2.1,2.1,2.8,3.3s0.9,2.2,0.9,3.1c0,1-0.4,1.8-1.1,2.5c-0.7,0.7-1.6,1-2.6,1
			c-0.6,0-1.1-0.1-1.6-0.4c-0.5-0.3-0.9-0.6-1.3-1.1c-0.9-1.5-1.7-2.6-2.4-3.4c-0.7-0.8-1.5-1.4-2.6-1.9c-1.1-0.5-2.5-0.8-4.2-0.8
			c-1.8,0-3.4,0.3-4.7,0.9c-1.4,0.6-2.6,1.5-3.6,2.7c-1,1.2-1.7,2.6-2.3,4.3c-0.5,1.7-0.8,3.6-0.8,5.6c0,4.4,1,7.9,3.1,10.2
			c2,2.4,4.9,3.6,8.5,3.6c1.8,0,3.4-0.2,5-0.7c1.6-0.5,3.1-1.1,4.7-2v-6.1h-5.9c-1.4,0-2.5-0.2-3.2-0.6c-0.7-0.4-1.1-1.2-1.1-2.2
			c0-0.8,0.3-1.5,0.9-2.1c0.6-0.6,1.4-0.8,2.5-0.8h8.7c1.1,0,2,0.1,2.7,0.3c0.7,0.2,1.3,0.6,1.8,1.3
			C102.5,48.8,102.8,49.8,102.8,51.1z"/>
		<path class="st0" d="M110.4,62.5V32.6c0-1.5,0.4-2.7,1.1-3.5c0.7-0.8,1.6-1.2,2.7-1.2c1.2,0,2.1,0.4,2.8,1.1
			c0.7,0.8,1.1,1.9,1.1,3.5v29.8c0,1.6-0.4,2.7-1.1,3.5c-0.7,0.8-1.6,1.2-2.8,1.2c-1.1,0-2-0.4-2.7-1.2
			C110.7,65.2,110.4,64,110.4,62.5z"/>
		<path class="st0" d="M134.1,32.6v27.5h15.5c1.2,0,2.2,0.3,2.9,0.9c0.7,0.6,1,1.4,1,2.3c0,0.9-0.3,1.7-1,2.3
			c-0.7,0.6-1.6,0.9-2.9,0.9h-18.5c-1.7,0-2.9-0.4-3.6-1.1c-0.7-0.7-1.1-1.9-1.1-3.6V32.6c0-1.5,0.3-2.7,1-3.5
			c0.7-0.8,1.6-1.2,2.7-1.2c1.2,0,2.1,0.4,2.8,1.1C133.8,29.9,134.1,31.1,134.1,32.6z"/>
		<path class="st0" d="M182.1,62.2l-1.8-4.8h-15.4l-1.8,4.9c-0.7,1.9-1.3,3.2-1.8,3.8s-1.3,1-2.5,1c-1,0-1.8-0.4-2.6-1.1
			c-0.7-0.7-1.1-1.5-1.1-2.4c0-0.5,0.1-1,0.3-1.6s0.5-1.3,0.9-2.3l9.7-24.6c0.3-0.7,0.6-1.6,1-2.5c0.4-1,0.8-1.8,1.2-2.5
			c0.4-0.7,1-1.2,1.7-1.6c0.7-0.4,1.6-0.6,2.6-0.6c1.1,0,2,0.2,2.7,0.6c0.7,0.4,1.3,0.9,1.7,1.6s0.8,1.3,1.1,2.1
			c0.3,0.7,0.7,1.7,1.1,2.9l9.9,24.4c0.8,1.9,1.2,3.2,1.2,4.1c0,0.9-0.4,1.7-1.1,2.4c-0.7,0.7-1.6,1.1-2.6,1.1
			c-0.6,0-1.1-0.1-1.5-0.3c-0.4-0.2-0.8-0.5-1.1-0.9c-0.3-0.4-0.6-0.9-0.9-1.7C182.6,63.5,182.3,62.8,182.1,62.2z M166.9,51.7h11.3
			l-5.7-15.6L166.9,51.7z"/>
		<path class="st0" d="M200.6,28.6h10c2.6,0,4.8,0.2,6.7,0.7c1.9,0.5,3.5,1.4,5.1,2.7c3.9,3.4,5.9,8.5,5.9,15.4
			c0,2.3-0.2,4.3-0.6,6.2c-0.4,1.9-1,3.6-1.8,5.1c-0.8,1.5-1.9,2.9-3.2,4c-1,0.9-2.1,1.6-3.3,2.2s-2.5,0.9-3.9,1.2
			c-1.4,0.2-2.9,0.3-4.7,0.3h-10c-1.4,0-2.4-0.2-3.1-0.6c-0.7-0.4-1.2-1-1.4-1.8c-0.2-0.8-0.3-1.8-0.3-3V33.3c0-1.7,0.4-2.8,1.1-3.6
			C197.8,29,199,28.6,200.6,28.6z M203.6,34.7v25.7h5.8c1.3,0,2.3,0,3-0.1c0.7-0.1,1.5-0.2,2.2-0.5c0.8-0.3,1.4-0.7,2-1.2
			c2.6-2.2,3.8-5.9,3.8-11.2c0-3.7-0.6-6.5-1.7-8.4c-1.1-1.9-2.5-3-4.2-3.5c-1.7-0.5-3.6-0.8-6-0.8H203.6z"/>
		<path class="st0" d="M251.6,28c3.9,0,7.3,0.8,10.1,2.4c2.8,1.6,4.9,3.9,6.4,6.8c1.4,2.9,2.2,6.4,2.2,10.3c0,2.9-0.4,5.6-1.2,8
			c-0.8,2.4-2,4.5-3.6,6.2c-1.6,1.8-3.5,3.1-5.8,4c-2.3,0.9-4.9,1.4-7.9,1.4c-3,0-5.6-0.5-8-1.4s-4.3-2.3-5.9-4s-2.7-3.8-3.5-6.3
			c-0.8-2.4-1.2-5.1-1.2-7.9c0-2.9,0.4-5.6,1.3-8c0.8-2.4,2-4.5,3.6-6.2c1.6-1.7,3.5-3,5.8-3.9C246.2,28.4,248.8,28,251.6,28z
			 M262.5,47.5c0-2.8-0.4-5.2-1.3-7.2c-0.9-2-2.2-3.6-3.8-4.6c-1.7-1-3.6-1.6-5.7-1.6c-1.5,0-2.9,0.3-4.2,0.9s-2.4,1.4-3.4,2.5
			c-0.9,1.1-1.7,2.5-2.2,4.2s-0.8,3.6-0.8,5.8c0,2.2,0.3,4.1,0.8,5.8c0.5,1.7,1.3,3.2,2.3,4.3s2.1,2,3.4,2.6
			c1.3,0.6,2.7,0.9,4.2,0.9c2,0,3.8-0.5,5.4-1.5c1.6-1,3-2.5,3.9-4.5C262.1,53,262.5,50.4,262.5,47.5z"/>
	</g>
	<line class="st3" x1="12.7" y1="16.9" x2="272" y2="16.9"/>
	<line class="st3" x1="12.7" y1="76.3" x2="272" y2="76.3"/>
</g>
</svg>
