<svg width="204" height="34" viewBox="0 0 204 34" fill="none" xmlns="http://www.w3.org/2000/svg">
<path d="M45.6328 3.9894C42.2988 3.98648 30.1287 3.9894 30.1287 3.9894V27.9666H36.5964V17.5901H46.6087C46.6087 17.5901 49.1725 17.4881 49.1725 14.7161C49.1725 11.9434 49.1725 6.65568 49.1725 6.65568C49.1725 6.65568 49.0187 3.9923 45.6328 3.9894ZM42.3698 13.5647H36.6352V9.16068H42.3698V13.5647Z" fill="#0C6C8E"/>
<path d="M50.4279 3.98584V27.9649H56.9048V9.07847L62.6524 9.1212V13.5826H57.8909V17.7429L62.6524 27.9659H69.4299L64.497 17.6147L66.8564 17.572C66.8564 17.572 69.4299 17.0999 69.4299 14.6551C69.4299 12.2103 69.4299 6.84826 69.4299 6.84826C69.4299 6.84826 69.1293 3.99797 66.5986 3.98584C64.0678 3.97369 50.4279 3.98584 50.4279 3.98584Z" fill="#0C6C8E"/>
<path d="M86.9739 3.97903C84.5703 3.97417 74.019 3.97903 74.019 3.97903C74.019 3.97903 70.9307 4.23153 70.7609 6.76131V25.7226C70.7609 25.7226 71.358 28.0242 73.9316 27.9659C76.505 27.9076 86.8865 27.9659 86.8865 27.9659C86.8865 27.9659 89.8921 27.8251 89.8921 25.3342C89.8921 22.8481 89.8921 6.76131 89.8921 6.76131C89.8921 6.76131 89.3774 3.98875 86.9739 3.97903ZM83.0748 22.7606H77.6219V9.12121H83.0748V22.7606Z" fill="#0C6C8E"/>
<path d="M99.9272 3.97662L91.2192 27.965H97.7392L103.445 12.0811L106.962 22.8049H101.728L101.772 27.965H115.241L107.047 3.97662H99.9272Z" fill="#0C6C8E"/>
<path d="M116.785 5.90423V25.7644C116.785 25.7644 117.258 27.9781 118.716 27.965C120.174 27.952 133.858 27.965 133.858 27.965L135.787 22.719L123.262 22.7617L123.306 9.16435H133.858L135.787 3.97708H118.888C118.886 3.9766 116.785 4.10236 116.785 5.90423Z" fill="#0C6C8E"/>
<path d="M136.988 3.97662V8.99249H143.251V27.965H149.685V8.99249L155.991 8.94976V3.97662H136.988Z" fill="#0C6C8E"/>
<path d="M163.711 3.97662H157.277V27.9646H163.711V3.97662Z" fill="#0C6C8E"/>
<path d="M164.912 3.97662L171.218 27.965H177.737L183.958 3.97662H177.565L174.435 15.971L171.303 3.97662H164.912Z" fill="#0C6C8E"/>
<path d="M201.082 3.97903C198.679 3.97417 188.127 3.97903 188.127 3.97903C188.127 3.97903 185.038 4.23153 184.869 6.76131V25.7226C184.869 25.7226 185.465 28.0242 188.039 27.9659C190.612 27.9076 200.994 27.9659 200.994 27.9659C200.994 27.9659 204 27.8251 204 25.3342C204 22.8481 204 6.76131 204 6.76131C204 6.76131 203.485 3.98875 201.082 3.97903ZM197.183 22.7606H191.729V9.12121H197.183V22.7606Z" fill="#0C6C8E"/>
<path opacity="0.8" d="M16.7664 14.3173L15.1761 23.7688L13.5728 33.2046L6.78023 27.0834L0 20.9766L1.60406 11.5265L3.20812 2.0759L9.98718 8.19633L16.7664 14.3173Z" fill="#61E1F2"/>
<path opacity="0.8" d="M27.1048 20.9766L20.312 27.0992L13.5314 33.2046L11.9287 23.7688L10.3386 14.3173L17.1175 8.19632L23.9104 2.07471L25.501 11.5265L27.1048 20.9766Z" fill="#29BBEF"/>
<path opacity="0.93" d="M22.4567 16.6088L18.0049 24.9132L13.5525 33.2176L9.10029 24.9132L4.64771 16.6088L9.10029 8.28951L13.5525 0L18.0049 8.30436L22.4567 16.6088Z" fill="#0C6C8E"/>
</svg>
