<?xml version="1.0" encoding="utf-8"?>
<!-- Generator: Adobe Illustrator 25.1.0, SVG Export Plug-In . SVG Version: 6.00 Build 0)  -->
<svg version="1.1" id="Capa_1" xmlns="http://www.w3.org/2000/svg" xmlns:xlink="http://www.w3.org/1999/xlink" x="0px" y="0px"
	 viewBox="0 0 399 62.1" style="enable-background:new 0 0 399 62.1;" xml:space="preserve">
<style type="text/css">
	.st0{fill:#FFFFFF;}
</style>
<g>
	<g id="TextPrimary_1_">
		<g id="TextPrimary">
			<path id="p" class="st0" d="M41,4.4c-7.4,0-34.4,0-34.4,0v53.2H21v-23h22.2c0,0,5.7-0.2,5.7-6.4c0-6.2,0-17.9,0-17.9
				S48.5,4.4,41,4.4z M33.8,25.7H21.1v-9.8h12.7V25.7z"/>
			<path id="r" class="st0" d="M51.7,4.4v53.2H66V15.7l12.8,0.1v9.9H68.2V35l10.6,22.7h15l-10.9-23l5.2-0.1c0,0,5.7-1,5.7-6.5
				s0-17.3,0-17.3s-0.7-6.3-6.3-6.3C81.9,4.4,51.7,4.4,51.7,4.4z"/>
			<path id="o" class="st0" d="M132.7,4.4c-5.3,0-28.7,0-28.7,0s-6.9,0.6-7.2,6.2v42.1c0,0,1.3,5.1,7,5c5.7-0.1,28.7,0,28.7,0
				s6.7-0.3,6.7-5.8c0-5.5,0-41.2,0-41.2S138.1,4.4,132.7,4.4z M124.1,46.1H112V15.8h12.1V46.1z"/>
			<polygon id="a" class="st0" points="161.5,4.4 142.2,57.6 156.6,57.6 169.3,22.4 177.1,46.2 165.5,46.2 165.6,57.6 195.5,57.6 
				177.3,4.4 			"/>
			<path id="c" class="st0" d="M198.9,8.7v44.1c0,0,1,4.9,4.3,4.9c3.2,0,33.6,0,33.6,0L241,46l-27.8,0.1l0.1-30.2h23.4L241,4.4
				h-37.5C203.5,4.4,198.9,4.7,198.9,8.7z"/>
			<polygon id="t" class="st0" points="243.7,4.4 243.7,15.5 257.6,15.5 257.6,57.6 271.9,57.6 271.9,15.5 285.9,15.4 285.9,4.4 			
				"/>
			<rect id="i" x="288.7" y="4.4" class="st0" width="14.3" height="53.2"/>
			<polygon id="v" class="st0" points="305.6,4.4 319.6,57.6 334.1,57.6 347.9,4.4 333.7,4.4 326.8,31 319.8,4.4 			"/>
			<path id="_x30_" class="st0" d="M385.9,4.4c-5.3,0-28.7,0-28.7,0s-6.9,0.6-7.2,6.2v42.1c0,0,1.3,5.1,7,5c5.7-0.1,28.7,0,28.7,0
				s6.7-0.3,6.7-5.8c0-5.5,0-41.2,0-41.2S391.2,4.4,385.9,4.4z M377.2,46.1h-12.1V15.8h12.1L377.2,46.1L377.2,46.1z"/>
		</g>
	</g>
</g>
</svg>
